<?xml version="1.0" standalone="no"?>
<svg xmlns="http://www.w3.org/2000/svg"
 width="800" height="420" viewBox="0 0 800 420"
 preserveAspectRatio="xMidYMid meet">

<!-- Quail bird logo in Ruby/Rails red (scaled down) -->
<g transform="translate(20,390) scale(0.075,-0.075)"
fill="#CC342D" stroke="none">
<path d="M3200 4108 c-148 -22 -280 -141 -345 -310 l-28 -75 -103 5 c-86 4
-114 1 -176 -18 -141 -42 -247 -120 -358 -260 -23 -30 -85 -143 -138 -250
-127 -263 -140 -275 -432 -425 -118 -60 -259 -140 -315 -176 -337 -224 -565
-509 -680 -851 -39 -115 -70 -250 -81 -348 -8 -78 -7 -77 -104 -215 -149 -214
-305 -437 -333 -476 -16 -22 -26 -46 -24 -54 3 -7 31 -19 62 -26 108 -24 256
28 364 127 48 44 65 53 121 63 95 19 292 85 387 131 45 22 87 40 94 40 6 0 26
-9 44 -20 59 -37 230 -98 340 -122 l110 -24 63 -95 c35 -52 87 -137 117 -189
l55 -95 -48 -5 c-69 -8 -112 -39 -112 -79 0 -8 138 -11 450 -11 312 0 450 3
450 11 0 22 -22 49 -50 64 -21 11 -60 15 -137 15 l-108 0 -105 132 c-58 72
-107 135 -109 140 -2 6 8 22 22 36 15 15 36 47 49 71 22 41 31 46 143 95 144
62 241 122 352 216 250 211 414 534 453 891 24 211 -19 478 -113 714 -70 177
-63 248 36 381 38 52 53 65 97 79 35 12 68 16 100 12 l48 -6 -8 28 c-21 75
-64 132 -121 161 -31 16 -37 26 -48 74 -16 70 -62 141 -123 186 -27 19 -48 42
-48 51 0 29 75 124 123 156 67 45 124 52 184 22 43 -22 52 -33 93 -114 53
-104 88 -135 156 -135 113 0 167 146 104 286 -58 131 -217 214 -370 192z
m-308 -531 c50 -30 73 -63 93 -129 15 -53 15 -59 0 -82 l-17 -25 -51 20 c-67
27 -65 25 -81 64 -14 33 -59 65 -92 65 -10 0 -32 -5 -51 -12 -38 -14 -57 -3
-29 18 32 23 8 17 -104 -27 -58 -22 -134 -52 -169 -65 -115 -45 -116 -24 -1
38 137 74 208 106 300 134 98 30 155 30 202 1z m-129 -151 c8 -20 -20 -43 -35
-28 -14 14 -3 42 16 42 7 0 16 -6 19 -14z m-153 -50 c0 -2 -11 -28 -24 -57
-47 -103 -41 -232 15 -341 36 -70 117 -142 188 -168 41 -16 66 -31 71 -44 10
-28 3 -29 -75 -11 -90 20 -176 74 -224 138 -66 88 -84 134 -89 222 -6 109 8
155 67 216 40 41 71 61 71 45z m-324 -84 c-8 -9 -19 -13 -22 -9 -10 9 16 38
28 31 6 -4 4 -13 -6 -22z m10 -90 c-22 -23 -29 -10 -9 18 11 16 18 19 21 11 2
-7 -3 -20 -12 -29z m-96 -28 c-18 -21 -24 -10 -9 18 8 14 14 18 17 10 2 -7 -2
-19 -8 -28z m124 -71 c-26 -19 -29 -8 -8 24 16 25 19 26 22 9 2 -11 -4 -25
-14 -33z m-78 -1 c-7 -22 -36 -38 -36 -20 0 14 31 50 38 44 2 -3 1 -13 -2 -24z
m114 -66 c0 -8 -9 -24 -20 -37 -17 -21 -19 -22 -20 -6 0 23 18 57 30 57 6 0
10 -6 10 -14z m-223 -33 c-25 -26 -40 -10 -15 16 15 17 23 20 26 12 2 -7 -3
-20 -11 -28z m126 12 c-3 -9 -8 -14 -10 -11 -3 3 -2 9 2 15 9 16 15 13 8 -4z
m-53 -60 c0 -18 -48 -70 -57 -62 -7 8 36 77 48 77 5 0 9 -7 9 -15z m90 -45 c0
-15 -59 -77 -60 -62 0 23 30 72 45 72 8 0 15 -4 15 -10z m90 2 c0 -5 -7 -17
-15 -28 -15 -19 -20 -8 -9 20 6 17 24 22 24 8z m-310 -6 c0 -2 -8 -10 -17 -17
-16 -13 -17 -12 -4 4 13 16 21 21 21 13z m60 -101 c-7 -8 -18 -15 -24 -15 -6
0 -2 7 8 15 25 19 32 19 16 0z m270 4 c0 -6 -5 -19 -11 -30 -15 -28 -31 -13
-17 16 11 25 28 34 28 14z m-90 -27 c0 -22 -34 -56 -50 -50 -11 3 29 68 43 68
4 0 7 -8 7 -18z m568 -139 c-10 -2 -18 -11 -18 -19 0 -8 -7 -17 -16 -21 -12
-4 -13 -8 -3 -13 17 -11 39 -1 48 23 6 15 12 2 29 -54 25 -86 37 -145 24 -114
-9 19 -9 19 -21 -3 -9 -18 -16 -20 -30 -12 -16 8 -18 7 -14 -9 5 -20 -11 -35
-37 -36 -8 0 -15 -5 -15 -12 0 -6 -4 -15 -9 -20 -5 -4 -6 -3 -3 3 9 16 -22 27
-38 14 -19 -16 -32 9 -30 60 0 25 4 51 8 57 4 6 4 14 -1 17 -4 2 -9 22 -10 43
-2 21 -4 51 -6 68 -3 26 -2 27 9 11 8 -10 18 -15 24 -11 6 3 11 0 11 -7 1 -8
6 -6 15 6 12 16 12 22 2 28 -6 4 12 7 43 7 30 -1 47 -3 38 -6z m-727 -60 c26
-11 49 -25 53 -31 7 -11 -8 -10 -37 3 -10 4 -20 5 -24 2 -3 -4 -19 1 -35 9
-41 21 -116 15 -228 -17 -206 -60 -314 -123 -439 -254 -64 -68 -71 -73 -51
-37 86 153 257 285 432 332 98 27 261 23 329 -7z m819 -273 c0 -5 -5 -10 -11
-10 -5 0 -7 5 -4 10 3 6 8 10 11 10 2 0 4 -4 4 -10z m-5 -30 c-3 -5 -1 -10 4
-10 6 0 11 -12 11 -27 0 -21 -3 -24 -9 -13 -6 8 -7 18 -5 22 3 5 -2 11 -11 14
-13 6 -14 8 -3 15 17 11 20 11 13 -1z m-21 -28 c3 -5 -1 -9 -9 -9 -8 0 -12 4
-9 9 3 4 7 8 9 8 2 0 6 -4 9 -8z m-1708 -44 c-71 -88 -157 -231 -177 -294 -26
-80 -26 -81 -38 -68 -14 14 5 101 36 162 15 30 65 94 111 143 85 90 117 116
68 57z m1719 2 c3 -5 1 -10 -4 -10 -6 0 -11 5 -11 10 0 6 2 10 4 10 3 0 8 -4
11 -10z m-475 -218 c-12 -49 -46 -138 -77 -202 -52 -108 -62 -121 -167 -225
-171 -170 -354 -270 -573 -314 -56 -12 -127 -21 -160 -21 l-58 1 110 29 c190
49 290 91 435 180 262 162 471 446 498 680 l7 55 3 -48 c2 -26 -6 -87 -18
-135z m-336 92 c-19 -40 -66 -74 -104 -74 -21 0 -15 8 45 64 39 35 71 60 73
55 2 -4 -4 -25 -14 -45z m-205 -26 c-5 -18 -9 -34 -9 -35 0 -1 -13 -11 -28
-22 -17 -12 -37 -18 -50 -14 -19 4 -15 10 35 54 31 27 57 49 59 49 1 0 -2 -15
-7 -32z m1005 -117 c24 -10 24 -10 11 -68 -19 -81 -61 -194 -106 -288 -46 -94
-136 -218 -162 -221 -13 -2 -17 2 -13 12 3 9 1 12 -4 9 -6 -3 -10 -13 -10 -21
0 -8 -5 -14 -11 -14 -6 0 -8 9 -4 20 8 24 -3 62 -15 55 -5 -3 -11 -1 -14 4 -3
5 -15 7 -26 4 -27 -7 -25 9 4 36 25 24 56 79 56 101 0 14 -99 -54 -118 -82 -7
-10 -17 -16 -22 -13 -5 3 -12 0 -16 -6 -4 -8 -9 -7 -15 2 -7 12 -9 12 -9 1 0
-8 9 -16 20 -19 27 -7 26 -23 -1 -18 -12 3 -24 7 -27 10 -3 2 -11 0 -18 -6 -9
-8 -11 -5 -7 10 3 12 10 21 15 21 5 0 6 5 3 10 -4 6 -11 8 -16 5 -5 -4 -9 -1
-9 4 0 6 4 11 10 11 14 0 60 76 60 100 0 11 -3 20 -6 20 -10 0 -87 -62 -106
-84 -14 -17 -18 -18 -33 -6 -9 7 -15 9 -14 4 4 -23 -3 -31 -26 -31 -23 0 -21
4 33 71 32 39 68 85 80 102 56 81 286 243 376 264 45 11 111 11 140 1z m-1994
-140 c0 -17 -11 -50 -24 -75 -13 -25 -27 -68 -31 -96 -6 -44 -9 -49 -22 -38
-22 18 -11 91 26 172 32 71 51 84 51 37z m850 -185 c0 -2 -7 -7 -16 -10 -8 -3
-12 -2 -9 4 6 10 25 14 25 6z m-384 -68 c4 -7 3 -8 -4 -4 -6 4 -22 1 -34 -5
-21 -11 -22 -11 -9 4 16 20 37 22 47 5z m-591 -27 c3 -5 1 -12 -5 -16 -5 -3
-10 1 -10 9 0 18 6 21 15 7z m1535 -35 c0 -2 -7 -7 -16 -10 -8 -3 -12 -2 -9 4
6 10 25 14 25 6z m-1596 -71 c-10 -16 -20 -23 -22 -16 -4 12 28 55 35 47 3 -2
-3 -17 -13 -31z m1473 20 c0 -8 -4 -15 -8 -15 -4 0 -16 -3 -26 -7 -12 -4 -10
0 7 15 14 12 25 21 26 22 0 0 1 -7 1 -15z m183 5 c0 -5 -4 -10 -10 -10 -5 0
-10 5 -10 10 0 6 5 10 10 10 6 0 10 -4 10 -10z m120 -64 c0 -3 -4 -8 -10 -11
-5 -3 -10 -1 -10 4 0 6 5 11 10 11 6 0 10 -2 10 -4z m-1538 -13 c-6 -2 -10 -9
-7 -14 4 -5 -1 -6 -10 -2 -13 5 -14 7 -3 14 7 5 18 8 23 8 6 0 4 -3 -3 -6z
m1301 -4 c12 -7 23 -13 25 -14 2 -2 -6 -17 -16 -35 -11 -17 -23 -27 -26 -22
-4 6 -2 13 4 17 6 4 8 11 4 16 -3 5 -10 6 -16 3 -7 -4 -8 -2 -4 5 4 6 11 9 16
6 5 -3 11 -1 14 4 3 5 -3 11 -14 14 -10 3 -21 0 -23 -7 -2 -6 -8 -8 -12 -4 -9
8 2 28 16 28 6 0 20 -5 32 -11z m-882 -17 c-7 -2 -18 1 -23 6 -8 8 -4 9 13 5
13 -4 18 -8 10 -11z m-506 -11 c-8 -14 -25 -14 -25 0 0 5 5 7 10 4 6 -3 10 -1
10 6 0 7 3 10 6 6 3 -3 3 -10 -1 -16z m1758 -6 c-10 -13 -22 -25 -27 -25 -9 0
11 29 29 42 17 13 17 9 -2 -17z m-302 -55 c-8 -4 -11 -15 -8 -25 4 -9 3 -14
-3 -10 -14 9 -12 42 3 48 18 6 24 -3 8 -13z m-34 -6 c-3 -3 -12 -4 -19 -1 -8
3 -5 6 6 6 11 1 17 -2 13 -5z m153 -14 c0 -5 -2 -10 -4 -10 -3 0 -8 5 -11 10
-3 6 -1 10 4 10 6 0 11 -4 11 -10z m-60 -20 c12 -7 10 -9 -8 -7 -12 0 -22 5
-22 9 0 11 12 10 30 -2z m40 0 c0 -5 -2 -10 -4 -10 -3 0 -8 5 -11 10 -3 6 -1
10 4 10 6 0 11 -4 11 -10z m30 -20 c0 -5 -4 -10 -10 -10 -5 0 -10 5 -10 10 0
6 5 10 10 10 6 0 10 -4 10 -10z m-44 -37 c-10 -10 -19 5 -10 18 6 11 8 11 12
0 2 -7 1 -15 -2 -18z m54 2 c-14 -17 -30 -20 -30 -4 0 5 5 7 10 4 6 -3 10 -1
10 4 0 6 5 11 11 11 8 0 8 -5 -1 -15z m-84 -40 c17 -16 14 -18 -10 -9 -9 3
-16 10 -16 15 0 13 9 11 26 -6z m-562 -350 c8 -19 46 -68 83 -107 66 -70 183
-218 183 -231 0 -4 -40 -7 -90 -7 l-89 0 -27 48 c-15 26 -64 109 -110 184
l-83 137 57 4 c31 2 58 4 59 5 2 1 9 -14 17 -33z"/>
<path d="M2768 3533 c7 -3 16 -2 19 1 4 3 -2 6 -13 5 -11 0 -14 -3 -6 -6z"/>
<path d="M2808 3533 c6 -2 18 -2 25 0 6 3 1 5 -13 5 -14 0 -19 -2 -12 -5z"/>
<path d="M2930 3506 c0 -2 8 -10 18 -17 15 -13 16 -12 3 4 -13 16 -21 21 -21
13z"/>
<path d="M2825 2620 c-3 -5 -1 -10 4 -10 6 0 11 5 11 10 0 6 -2 10 -4 10 -3 0
-8 -4 -11 -10z"/>
<path d="M2763 2525 c0 -7 6 -11 14 -8 7 3 16 -5 21 -18 9 -23 9 -23 14 -1 3
12 3 21 -1 20 -3 -1 -15 3 -27 9 -16 10 -21 9 -21 -2z"/>
<path d="M2776 2412 c-3 -4 4 -9 15 -9 23 -2 25 3 4 10 -8 4 -16 3 -19 -1z"/>
<path d="M2861 1837 c-6 -8 -7 -18 -3 -22 4 -5 1 -5 -6 -1 -8 5 -19 -7 -33
-39 -11 -26 -18 -49 -15 -53 13 -12 55 44 64 86 11 46 10 49 -7 29z"/>
<path d="M2652 1744 c-29 -28 -42 -50 -42 -68 l0 -27 31 18 c33 19 63 73 57
101 -3 13 -13 8 -46 -24z"/>
<path d="M2772 1618 c-28 -30 -62 -93 -62 -117 0 -20 45 10 73 49 28 40 47
100 30 100 -5 0 -23 -15 -41 -32z"/>
<path d="M2706 1395 c-9 -26 -7 -32 5 -12 6 10 9 21 6 23 -2 3 -7 -2 -11 -11z"/>
</g>

<!-- "Quail" text -->
<text x="320" y="280" font-family="Verdana, Geneva, sans-serif" font-size="170" font-weight="normal" fill="#CC342D" letter-spacing="2">
  Quail
</text>

</svg>
